<svg width="53" height="51" viewBox="0 0 53 51" fill="none" xmlns="http://www.w3.org/2000/svg">
<path d="M27.1915 15.0376C27.4935 15.3791 27.6117 16.3508 27.94 16.5872C28.0188 16.6397 29.6209 17.2569 29.7259 17.2569C30.2643 17.2569 30.7633 16.5478 31.5118 16.7841C31.6825 16.8367 33.5603 18.662 33.6916 18.8852C34.23 19.7387 33.2189 20.3428 33.3633 21.0519C33.3765 21.1438 33.9937 22.6539 34.0462 22.7196C34.3745 23.0873 35.6088 23.1004 35.7533 23.757C35.8452 24.1772 35.8452 26.3308 35.7796 26.7904C35.6482 27.5783 34.322 27.5126 34.0068 27.9722C33.9543 28.051 33.3371 29.6531 33.3371 29.7581C33.3371 30.2965 34.0462 30.7955 33.8098 31.544C33.7573 31.7147 31.932 33.5925 31.7088 33.7238C30.8552 34.2622 30.2512 33.2511 29.5421 33.3955C29.4501 33.4087 27.94 34.0259 27.8744 34.0784C27.5067 34.4067 27.4935 35.641 26.837 35.7855C26.4168 35.8774 24.2632 35.8774 23.8036 35.8118C23.0157 35.6804 23.0813 34.3541 22.6217 34.039C22.543 33.9865 20.9409 33.3693 20.8359 33.3693C20.2975 33.3693 19.7985 34.0784 19.05 33.842C18.8793 33.7895 17.0014 31.9642 16.8701 31.741C16.3317 30.8874 17.3429 30.2834 17.1984 29.5743C17.1853 29.4823 16.5681 27.9722 16.5156 27.9066C16.1873 27.5389 14.9529 27.5257 14.8085 26.8692C14.7166 26.449 14.7166 24.2954 14.7822 23.8358C14.9135 23.0479 16.2398 23.1135 16.555 22.6539C16.6075 22.5752 17.2247 20.9731 17.2247 20.8681C17.2247 20.3297 16.5156 19.8307 16.7519 19.0822C16.8045 18.8983 18.7085 16.968 18.9055 16.8629C19.7197 16.4427 20.2318 17.2569 20.8359 17.2569C20.9278 17.2569 22.4379 16.6791 22.543 16.6134C23.0945 16.2983 22.9894 14.9326 23.7905 14.8013C24.3026 14.7225 26.1147 14.7225 26.64 14.8013C26.8107 14.8275 27.0471 14.9195 27.1653 15.0376H27.1915ZM26.0885 16.4427H24.4733C24.3945 16.7973 24.1581 17.6508 23.8824 17.8609C23.6591 18.0316 22.7005 18.268 22.3329 18.4256C21.9652 18.5832 21.453 18.9508 21.0854 19.0165C20.4682 19.1347 19.851 18.3599 19.3126 18.6751C19.2338 18.7276 18.5904 19.3973 18.5641 19.463C18.4459 19.8963 19.0631 20.5135 19.0106 21.0388C18.9712 21.3933 18.551 21.9842 18.4065 22.3519C18.2358 22.759 18.0651 23.5469 17.8681 23.8489C17.6318 24.2429 16.4237 24.4661 16.3974 24.5449V26.1075C16.7651 26.1863 17.6318 26.4227 17.8287 26.6985C17.9994 26.9217 18.2358 27.8803 18.3934 28.248C18.551 28.6157 18.8661 29.0621 18.958 29.4298C19.1288 30.1258 18.3146 30.7167 18.6429 31.2682C18.6954 31.347 19.3651 31.9905 19.4308 32.0167C19.851 32.1349 20.4682 31.5571 20.9278 31.5571L23.8167 32.7127L24.5127 34.1834H26.0753C26.3248 32.542 26.8501 32.7915 28.0188 32.2925C28.439 32.1087 28.9905 31.7278 29.3976 31.6228C30.0936 31.4521 30.6845 32.2662 31.236 31.9379C31.3148 31.8854 31.9583 31.2157 31.9845 31.1501C32.1027 30.7298 31.5249 30.1127 31.5249 29.6531L32.6805 26.7641L34.1512 26.0681V24.5055C33.7836 24.4267 32.9169 24.1903 32.7199 23.9146C32.5492 23.6913 32.3128 22.7327 32.1552 22.365C31.9845 21.9448 31.4855 21.2489 31.5381 20.8287C31.6037 20.3691 32.2078 19.8569 31.9057 19.3448C31.8532 19.266 31.1835 18.6226 31.1179 18.5963C30.6845 18.4781 30.0673 19.0953 29.5421 19.0428C29.1744 19.0034 28.4259 18.5044 28.0319 18.3337C26.8632 17.8347 26.3248 18.0842 26.0885 16.4559V16.4427Z" fill="white"/>
<path d="M8.65006 0.0413831C16.332 -0.654589 21.7685 7.56576 17.9341 14.3154C14.231 20.8286 4.77625 20.7498 1.17821 14.1841C-2.11781 8.19607 1.86105 0.645434 8.65006 0.0413831ZM8.74198 1.66969C3.44997 2.19496 0.206474 7.80213 2.255 12.6871C4.68433 18.4912 12.7208 19.2528 16.1876 14.0133C19.9301 8.36678 15.4259 1.02625 8.74198 1.66969Z" fill="white"/>
<path d="M42.1523 31.4522C49.7686 30.7824 55.0607 38.9371 51.3707 45.6605C48.1403 51.5303 39.9725 52.2919 35.6522 47.1706C30.6622 41.2483 34.5098 32.1219 42.1523 31.4522ZM42.2574 33.0805C36.125 33.632 32.9734 40.7099 36.5846 45.7261C39.8675 50.2828 46.9454 49.9282 49.808 45.109C53.1435 39.5018 48.7444 32.4895 42.2574 33.0805Z" fill="white"/>
<path d="M6.52249 23.4681L6.31239 24.2297C5.5245 36.8754 17.553 46.7766 29.8179 43.7563C30.934 44.1897 30.7108 45.1483 29.5946 45.4634C27.4804 46.0544 24.3683 46.0018 22.2016 45.6867C11.6044 44.0978 3.73861 34.3016 4.80226 23.5732C4.25074 23.9671 3.60729 25.0833 2.85879 24.3479C2.45171 23.954 2.5699 23.5338 2.85879 23.1136C3.14769 22.6934 4.9861 20.8812 5.40631 20.566C5.87905 20.2115 6.22047 20.1984 6.62755 20.6711C6.83765 20.9075 8.59728 23.7701 8.6498 23.954C8.80738 24.6631 8.33465 25.149 7.62554 24.9782C7.17907 24.8732 6.70633 23.9015 6.53562 23.4681H6.52249Z" fill="white"/>
<path d="M45.7859 27.04C46.3506 26.6854 46.692 25.7531 47.493 26.0945C48.1496 26.3702 48.0446 27.0662 47.6769 27.5521C47.3092 28.0379 45.6415 29.6925 45.1819 30.0471C44.7223 30.4016 44.3546 30.4016 43.9606 29.942C43.7111 29.6531 42.1091 27.1187 42.004 26.8036C41.6495 25.8056 42.5687 25.2147 43.3566 25.8581L44.1707 27.1319C45.2475 17.2701 38.1171 8.14366 28.3866 6.56788C25.8391 6.14767 23.3047 6.29211 20.7835 6.84364C19.9037 6.67293 19.8249 5.51735 20.6784 5.21533C22.9896 4.40117 27.3098 4.63754 29.6998 5.14967C39.6666 7.30324 46.8233 16.8105 45.8122 27.0268L45.7859 27.04Z" fill="white"/>
<path d="M24.854 19.5156C32.0239 18.9772 33.3896 29.5612 26.5086 30.9663C18.4327 32.6209 16.8044 20.1196 24.854 19.5156ZM24.9591 21.157C19.0762 21.6298 20.4944 30.7562 26.3117 29.338C31.1572 28.1561 30.0016 20.7499 24.9591 21.157Z" fill="white"/>
<path d="M12.3963 4.59808C13.5781 4.34858 16.1782 7.34257 14.3398 7.72339C13.4731 7.90723 13.3286 6.75165 12.6327 6.35771C11.5953 5.75366 9.4811 6.35771 9.91444 7.74965C10.2165 8.70825 12.0549 8.76078 12.9084 9.04967C16.257 10.1659 15.8368 14.2366 12.3963 14.6043C12.6721 16.3771 10.4791 16.4296 10.7549 14.6043C9.4811 14.9063 6.74974 11.7285 8.50936 11.177C9.55989 10.8487 9.49423 12.1619 10.0458 12.6083C11.0963 13.4487 14.0246 13.2255 13.46 11.4396C13.1579 10.4547 10.6629 10.3366 9.74373 9.8507C7.72147 8.80017 7.70834 6.09508 9.66494 5.00516C9.92757 4.86071 10.7023 4.65061 10.7417 4.61121C10.8205 4.51929 10.5973 3.60008 11.1619 3.35058C12.0549 2.95664 12.5407 3.82332 12.3832 4.62434L12.3963 4.59808Z" fill="white"/>
<path d="M43.8199 40.5785C44.4108 40.9724 46.1048 41.5108 46.026 42.3512C45.9866 42.7846 45.6058 43.0997 45.1725 43.0866C44.923 43.0866 42.73 41.8654 42.4805 41.6553C42.3623 41.5634 42.2573 41.4583 42.2179 41.3139C42.1128 40.9593 42.1128 38.0441 42.1785 37.5976C42.3098 36.7309 43.531 36.6653 43.7543 37.4269C43.9381 38.031 43.6492 40.3159 43.8199 40.5785Z" fill="white"/>
<path d="M42.6512 33.2774C44.1351 32.8309 44.1482 35.3784 43.2159 35.5754C41.7846 35.8906 41.9421 33.4875 42.6512 33.2774Z" fill="white"/>
<path d="M35.823 40.2108C36.624 40.0269 37.8978 40.2108 37.5433 41.3138C37.3463 41.9179 36.3351 41.9179 35.823 41.7997C35.0089 41.6159 35.0089 40.3946 35.823 40.2108Z" fill="white"/>
<path d="M42.8614 46.4352C44.3453 46.2251 44.1089 49.3898 42.5857 48.707C42.0079 48.4443 41.8634 46.5797 42.8614 46.4352Z" fill="white"/>
<path d="M39.1846 37.2038C38.4361 37.9523 36.8603 36.5472 37.3724 35.6411C38.0027 34.5118 40.0906 36.2977 39.1846 37.2038Z" fill="white"/>
<path d="M48.9808 40.2109C49.4798 40.1059 50.6091 40.1059 50.7405 40.7493C50.9506 41.8393 49.8738 41.9443 49.0728 41.813C48.1404 41.6685 48.2849 40.3685 48.9808 40.2109Z" fill="white"/>
<path d="M47.2474 44.5837C48.3505 44.3867 49.5323 46.7241 47.9434 46.7241C47.3262 46.7241 46.4202 45.818 46.604 45.1877C46.6697 44.9776 47.0242 44.6362 47.2474 44.5968V44.5837Z" fill="white"/>
<path d="M47.6545 35.3128C48.9545 35.0108 48.9939 36.4947 47.9434 37.23C47.3525 37.6502 46.5252 37.2432 46.5646 36.5735C46.5909 36.1926 47.2868 35.3916 47.6545 35.3128Z" fill="white"/>
<path d="M38.4754 44.5968C38.8562 44.5311 39.3289 44.8988 39.3946 45.2665C39.5916 46.2251 37.635 47.4201 37.2935 46.2382C37.0966 45.5816 37.8845 44.6887 38.4754 44.5968Z" fill="white"/>
</svg>
