<svg width="54" height="57" viewBox="0 0 54 57" fill="none" xmlns="http://www.w3.org/2000/svg">
<g clip-path="url(#clip0_1_1231)">
<path d="M3.48783 57.0005C1.67673 56.5925 0.321324 55.4078 0 53.6084V16.3349L0.292113 15.8263L8.68744 7.82958L9.2483 7.70105L32.15 7.68987L36.6427 0.335754C37.6767 -0.457775 38.0331 0.313401 38.5239 1.06781C43.9163 9.27693 48.4966 18.2069 53.8481 26.4663C54.2278 26.7905 53.7897 27.8466 53.4508 27.8466H42.3389V53.4966C42.3389 53.6419 42.0876 54.3293 42.0117 54.5193C41.4508 55.8437 40.2415 56.6093 38.851 57.0061H3.48783V57.0005ZM51.4177 26.064L37.4606 2.69958L23.2697 26.0696H51.4236L51.4177 26.064ZM31.0633 9.4837H10.2356V13.4346C10.2356 14.6863 9.40019 16.0387 8.34275 16.7428C8.10906 16.8993 7.12171 17.3855 6.91723 17.3855H1.86368V53.6028C1.86368 54.1728 3.21908 55.2849 3.89679 55.2178H38.3369C39.1081 55.3352 40.4869 54.156 40.4869 53.4911V27.841H21.2366C20.9445 27.841 20.4596 26.8575 20.8043 26.539L31.0691 9.4837H31.0633ZM3.14314 15.7202H6.22785C6.5667 15.7202 7.50146 15.2116 7.74099 14.9434C7.97468 14.6919 8.3778 13.8593 8.3778 13.5463V10.7075L3.14314 15.7146V15.7202Z" fill="white"/>
<path d="M11.8306 34.1106C12 34.3006 12.0818 34.7645 12.1052 35.0215L12.0467 51.2218C11.924 51.6298 11.8189 51.9147 11.334 51.9874C10.7205 52.0768 7.38461 52.088 6.82959 51.9706C6.444 51.8868 6.16942 51.5292 6.16357 51.1603L6.19279 34.4906C6.32132 34.0827 6.60759 33.8983 7.03991 33.8536C7.91041 33.7586 10.3758 33.7474 11.2347 33.8536C11.4158 33.8759 11.7196 33.9877 11.8364 34.1106H11.8306ZM10.2356 35.6362H8.02725V50.2159H10.2356V35.6362Z" fill="white"/>
<path d="M9.3827 24.3255L14.8511 30.1764C15.3126 30.2547 17.1062 27.3041 18.0935 28.2932L23.6904 34.1832C23.7722 34.1944 24.4207 33.6858 24.5492 33.5797C25.2444 33.0041 25.8988 31.7747 26.9153 32.3111L31.5833 37.1897C31.817 36.452 32.6758 35.977 33.2717 36.6867C33.4937 36.9494 34.2298 39.7491 34.2649 40.1905C34.3116 40.7773 33.8209 41.2188 33.225 41.1908C32.8803 41.1741 30 40.3638 29.7138 40.1961C28.8199 39.6764 29.3691 38.475 30.3564 38.4694L26.3428 34.3005C25.5541 34.837 24.3506 36.832 23.2639 36.357L17.5034 30.2994C16.9134 30.6961 15.447 32.4173 14.8277 32.4173C14.6641 32.4173 14.5122 32.3726 14.3778 32.2832L7.92214 25.4432C7.38465 24.4541 8.51805 23.6103 9.37686 24.3255H9.3827Z" fill="white"/>
<path d="M14.857 37.6647C16.0721 37.4076 18.0644 37.8044 19.3672 37.6423C19.8755 37.81 20.1325 38.3129 20.1325 38.8047C19.8579 42.6885 20.483 46.997 20.1325 50.8305C20.0975 51.2105 19.9865 51.8085 19.5541 51.9426L14.8394 51.9873L14.2494 51.4397L14.1968 38.4694C14.2026 38.1005 14.4772 37.7429 14.8628 37.6591L14.857 37.6647ZM18.263 39.4194H16.0546V50.2103H18.263V39.4194Z" fill="white"/>
<path d="M23.1177 41.3362C23.8246 41.2133 26.4186 41.2245 27.1489 41.3195C27.9142 41.42 28.0895 41.9062 28.1538 42.5824C28.3465 44.6668 28.3465 48.7406 28.1538 50.825C28.1187 51.205 28.0077 51.803 27.5754 51.9371L22.8607 51.9818L22.2706 51.4342L22.218 42.2471C22.2531 41.7553 22.627 41.4145 23.1236 41.3306L23.1177 41.3362ZM26.2901 50.2103V43.253L26.1148 43.0853H24.0817V50.2047H26.2901V50.2103Z" fill="white"/>
<path d="M30.9115 44.7842C31.449 44.6668 34.709 44.678 35.299 44.7674C35.5912 44.8121 35.8248 44.9854 36.0001 45.2089L35.9767 51.6354C35.8073 51.9539 35.5327 51.9706 35.1939 51.9986C34.6505 52.0489 30.9875 52.0545 30.7129 51.9371C30.3857 51.7974 30.2689 51.3671 30.2396 51.0542C30.117 49.7856 30.0936 46.8351 30.2396 45.5945C30.2864 45.2089 30.4909 44.8736 30.9057 44.7842H30.9115ZM34.3175 46.5389H32.1092V50.3221H34.1423L34.3175 50.1545V46.5389Z" fill="white"/>
<path d="M37.0808 9.50556C37.7293 9.37144 38.2025 9.69555 38.2785 10.3158C38.5647 12.6406 38.0681 15.4961 38.2668 17.8767C38.109 18.8435 36.5492 19.0335 36.4089 17.5526C36.2454 15.8929 36.222 12.0594 36.4089 10.4276C36.4557 10.0197 36.5959 9.60056 37.075 9.50556H37.0808Z" fill="white"/>
<path d="M37.0807 20.8553C38.7399 20.5088 38.6581 23.4036 37.3845 23.4706C36.1109 23.5377 36.0233 21.0733 37.0807 20.8553Z" fill="white"/>
</g>
<defs>
<clipPath id="clip0_1_1231">
<rect width="54" height="57" fill="white"/>
</clipPath>
</defs>
</svg>
