<svg width="53" height="58" viewBox="0 0 53 58" fill="none" xmlns="http://www.w3.org/2000/svg">
<g clip-path="url(#clip0_1_1263)">
<path d="M1.4179 57.5868C-0.35689 57.1747 -1.68512 55.9778 -2 54.1598V16.5028L-1.71374 15.989L6.51326 7.91L7.06287 7.78015L29.5053 7.76886L33.908 0.339073C34.9213 -0.462621 35.2705 0.31649 35.7514 1.07866C41.0357 9.37224 45.5242 18.3941 50.7684 26.7385C51.1406 27.066 50.7112 28.133 50.3791 28.133H39.49V54.0469C39.49 54.1937 39.2438 54.8881 39.1693 55.0801C38.6197 56.4181 37.4346 57.1916 36.0721 57.5924H1.4179V57.5868ZM48.3868 26.332L34.7095 2.72722L20.8032 26.3377H48.3925L48.3868 26.332ZM28.4405 9.58114H8.03041V13.5727C8.03041 14.8373 7.21172 16.2036 6.17547 16.9149C5.94647 17.073 4.97892 17.5642 4.77854 17.5642H-0.173686V54.1542C-0.173686 54.73 1.15454 55.8535 1.81866 55.7858H35.5682C36.324 55.9044 37.6751 54.7131 37.6751 54.0413V28.1274H18.8108C18.5246 28.1274 18.0494 27.1337 18.3872 26.8119L28.4462 9.58114H28.4405ZM1.08012 15.8818H4.10298C4.43504 15.8818 5.35106 15.368 5.58579 15.097C5.81479 14.843 6.20982 14.0017 6.20982 13.6856V10.8176L1.08012 15.8761V15.8818Z" fill="white"/>
<path d="M11.5934 34.4616C11.7594 34.6535 11.8396 35.1221 11.8625 35.3818L11.8052 51.7488C11.685 52.161 11.582 52.4489 11.1068 52.5223C10.5056 52.6126 7.23659 52.6239 6.6927 52.5053C6.31484 52.4207 6.04576 52.0593 6.04004 51.6867L6.06866 34.8455C6.19462 34.4334 6.47515 34.2471 6.89881 34.2019C7.75185 34.1059 10.1679 34.0946 11.0094 34.2019C11.1869 34.2245 11.4846 34.3374 11.5991 34.4616H11.5934ZM10.0304 36.0029H7.86635V50.7326H10.0304V36.0029Z" fill="white"/>
<path d="M7.19462 24.576L12.5533 30.4871C13.0056 30.5661 14.7632 27.5851 15.7308 28.5844L21.2154 34.535C21.2956 34.5463 21.9311 34.0326 22.057 33.9253C22.7383 33.3438 23.3795 32.1017 24.3757 32.6437L28.9501 37.5724C29.1791 36.8272 30.0207 36.3473 30.6046 37.0643C30.8222 37.3297 31.5436 40.1582 31.5779 40.6042C31.6237 41.197 31.1428 41.643 30.5588 41.6148C30.2211 41.5979 27.3986 40.7792 27.118 40.6099C26.2421 40.0848 26.7803 38.871 27.7478 38.8653L23.8146 34.6536C23.0418 35.1956 21.8624 37.2111 20.7975 36.7312L15.1525 30.6113C14.5743 31.0121 13.1373 32.751 12.5304 32.751C12.3701 32.751 12.2213 32.7058 12.0896 32.6155L5.76334 25.7051C5.23663 24.7058 6.3473 23.8533 7.1889 24.576H7.19462Z" fill="white"/>
<path d="M12.559 38.0523C13.7499 37.7926 15.7021 38.1934 16.9788 38.0297C17.4769 38.1991 17.7288 38.7072 17.7288 39.204C17.4598 43.1278 18.0723 47.4807 17.7288 51.3536C17.6945 51.7376 17.5857 52.3416 17.162 52.4771L12.5419 52.5223L11.9636 51.969L11.9121 38.8653C11.9178 38.4927 12.1869 38.1313 12.5648 38.0467L12.559 38.0523ZM15.8968 39.8251H13.7327V50.727H15.8968V39.8251Z" fill="white"/>
<path d="M20.6541 41.7615C21.3469 41.6373 23.8888 41.6485 24.6045 41.7445C25.3545 41.8461 25.5262 42.3373 25.5892 43.0205C25.7781 45.1263 25.7781 49.2421 25.5892 51.3479C25.5548 51.7318 25.4461 52.3359 25.0224 52.4714L20.4022 52.5166L19.824 51.9633L19.7725 42.6817C19.8068 42.1849 20.1732 41.8405 20.6599 41.7558L20.6541 41.7615ZM23.7629 50.7269V43.6979L23.5911 43.5286H21.5988V50.7212H23.7629V50.7269Z" fill="white"/>
<path d="M30.2915 45.2449C30.8182 45.1263 34.0128 45.1376 34.5911 45.228C34.8773 45.2731 35.1063 45.4481 35.2781 45.674L35.2552 52.1666C35.0892 52.4884 34.8201 52.5053 34.488 52.5335C33.9556 52.5844 30.3659 52.59 30.0969 52.4714C29.7763 52.3303 29.6617 51.8956 29.6331 51.5794C29.5129 50.2978 29.49 47.3169 29.6331 46.0635C29.6789 45.674 29.8793 45.3352 30.2858 45.2449H30.2915ZM33.6293 47.0177H31.4652V50.8398H33.4575L33.6293 50.6704V47.0177Z" fill="white"/>
<path d="M36.3374 9.6034C36.9729 9.4679 37.4366 9.79535 37.511 10.422C37.7916 12.7707 37.3049 15.6556 37.4996 18.0607C37.345 19.0374 35.8164 19.2294 35.679 17.7333C35.5187 16.0565 35.4958 12.1835 35.679 10.5349C35.7248 10.1228 35.8622 9.69938 36.3317 9.6034H36.3374Z" fill="white"/>
<path d="M36.3373 21.0698C37.9633 20.7198 37.8831 23.6443 36.6351 23.7121C35.387 23.7798 35.3011 21.29 36.3373 21.0698Z" fill="white"/>
</g>
<defs>
<clipPath id="clip0_1_1263">
<rect width="52.9173" height="57.5865" fill="white"/>
</clipPath>
</defs>
</svg>
