<svg width="53" height="58" viewBox="0 0 53 58" fill="none" xmlns="http://www.w3.org/2000/svg">
<g clip-path="url(#clip0_1_1252)">
<path d="M26.497 57.5865H25.5947C14.5781 52.581 5.41338 43.4759 1.757 31.6535C1.51957 30.8907 0.759802 28.6502 1.04472 27.9828C1.23466 27.5061 2.37431 27.4584 2.51677 28.0782C4.98601 39.1855 12.3938 48.243 22.1283 53.8681C22.6981 54.2018 25.6422 55.8703 26.0696 55.8703C26.2595 55.8703 26.3545 55.8703 26.5444 55.775C27.3517 55.5366 29.2986 54.3448 30.1059 53.8681C39.8404 48.243 47.2006 39.2332 49.7174 28.0782C50.2872 27.2678 51.2369 27.5061 51.2369 28.5549C51.2369 29.5083 50.3347 31.9395 50.0023 32.9406C47.2956 40.7586 41.8348 47.6709 35.1868 52.4857C32.4801 54.4402 29.5835 56.061 26.5919 57.4911L26.497 57.5865Z" fill="white"/>
<path d="M15.2902 3.86133H36.9436C38.3682 4.2427 38.6531 5.57748 39.3654 6.62624C40.695 8.67609 42.4994 10.3922 44.5888 11.584C46.4407 12.6328 47.9603 12.5374 48.1502 15.1117C48.6251 21.4519 47.5329 28.6025 44.9212 34.3707C41.6447 41.569 34.9967 48.6243 27.9214 52.1996C26.4018 52.9624 26.0694 53.1054 24.5024 52.3426C23.4577 51.8659 22.1756 51.0079 21.1784 50.3881C9.16459 42.5224 2.8965 29.6513 3.98867 15.1117C4.17861 12.5851 5.69815 12.6328 7.55008 11.584C9.68693 10.3922 11.4914 8.62842 12.7735 6.62624C13.4858 5.52981 13.7707 4.14735 15.2902 3.86133ZM46.2033 14.2059C45.9659 13.9676 44.5413 13.4909 44.1139 13.2048C41.8821 11.9654 39.7927 10.2016 38.3682 8.05637C37.9408 7.43665 37.466 6.1972 37.0861 5.76816C36.9436 5.57748 36.7537 5.48214 36.5162 5.43447H15.5751L15.1953 5.67282C13.5807 8.91444 11.2065 11.4887 8.02494 13.2048C7.5026 13.4909 6.31546 13.8722 5.98306 14.1582C5.79312 14.3489 5.69815 14.7303 5.65066 15.0163C5.46072 17.2092 5.55569 20.6892 5.74563 22.882C6.74283 34.323 14.483 45.192 24.5024 50.5311C25.1197 50.8648 25.737 51.3416 26.4493 51.1032C27.8739 50.6742 31.0079 48.386 32.29 47.4325C42.4519 39.6622 47.5804 27.9351 46.4407 15.064C46.4407 14.8256 46.3457 14.3966 46.2033 14.2536V14.2059Z" fill="white"/>
<path d="M50.3347 11.1545C50.3347 11.1545 48.5302 10.7731 48.1028 10.6301C44.8263 9.72438 41.9297 7.43618 40.7426 4.19456C40.4577 3.47949 40.4102 2.62142 40.1728 2.04937C40.1253 1.90635 40.0303 1.71567 39.8404 1.668H12.2513C12.2513 1.668 12.0139 1.85868 11.9189 2.04937C11.6815 2.62142 11.634 3.52716 11.3491 4.19456C10.1619 7.38851 7.31279 9.72438 4.08378 10.5825C3.65641 10.6778 1.85196 10.9638 1.7095 11.1545C1.61453 11.3452 1.61453 11.4882 1.61453 11.6789C1.3771 14.5391 1.51956 18.5435 1.61453 21.4514C1.61453 22.3095 1.80447 23.2629 1.85196 24.121C1.75699 24.7884 0.902247 25.0744 0.427391 24.5977C0.189964 24.3594 0.0949928 23.0722 0.0475073 22.6432C-0.142435 18.8772 0.237449 14.9205 0.0475073 11.1545C0.237449 9.2 1.94693 9.34302 3.37149 8.96165C6.50554 8.15124 9.11724 6.00605 10.0669 2.85977C10.4468 1.57266 10.3044 0.333213 11.9189 -0.0958252H39.7929C41.7398 0.0948585 41.6448 1.42964 42.0722 2.85977C42.9744 5.91071 45.5861 8.15124 48.5777 8.91398C50.0497 9.29534 51.8542 9.10466 52.0916 11.1545C51.9017 14.9682 52.3291 18.9725 52.0916 22.7385C52.0916 23.0722 51.9967 24.0257 51.8542 24.3117C51.5693 24.8837 50.7145 24.8837 50.4296 24.3117C50.1447 23.7873 50.5246 22.0711 50.5246 21.4038C50.6196 18.4482 50.762 14.4438 50.5246 11.6312C50.5246 11.4405 50.5246 11.1545 50.3821 11.0592L50.3347 11.1545Z" fill="white"/>
<path d="M18.0921 20.4985C18.0921 17.5429 17.7122 14.8734 19.3267 12.2515C22.6032 7.00767 30.6282 7.48438 33.24 13.0619C34.4746 15.6838 33.6673 17.5429 33.9522 20.1172C33.9522 20.2602 33.9522 20.4032 34.1422 20.4985H35.9466C35.9466 20.4985 37.0388 21.0706 37.2287 21.2136C37.7036 21.6903 37.941 22.453 38.036 23.1204C38.3684 26.8388 37.7986 31.0338 38.036 34.7998C37.846 36.5636 36.7539 37.3264 35.0919 37.4694C29.2987 37.8984 22.9831 37.1357 17.1424 37.4694C15.6703 37.4694 14.3407 36.5636 14.1983 35.0382C13.8184 31.1292 14.4832 26.6481 14.1983 22.6914C14.1983 21.8333 15.4329 20.4985 16.2401 20.4985H18.0921ZM32.4327 20.4985V15.9221C32.4327 12.3468 28.3964 9.82025 25.1199 10.2493C22.7931 10.5353 19.8016 13.1095 19.8016 15.5884V20.4985H32.4802H32.4327ZM16.8575 22.0717C16.4301 22.1194 16.1927 22.2624 15.9552 22.5961V34.8952C15.9552 35.4195 16.3351 35.7532 16.8575 35.7532L35.8042 35.6579C36.1841 35.4672 36.4215 35.1335 36.4215 34.6568C36.1366 30.9385 36.7539 26.7434 36.4215 23.0728C36.3265 22.2147 35.8991 22.0717 35.1394 22.024H16.9049L16.8575 22.0717Z" fill="white"/>
<path d="M26.9718 29.7467C26.6394 30.3187 27.5416 33.0837 26.0221 32.9883C24.8349 32.9406 25.4048 30.6048 25.3098 29.7944C23.3154 28.8409 24.2651 25.8377 26.4495 26.1714C27.874 26.4097 28.4913 28.0782 27.6841 29.2223C27.5416 29.413 27.0668 29.699 27.0193 29.7467H26.9718Z" fill="white"/>
</g>
<defs>
<clipPath id="clip0_1_1252">
<rect width="52.1391" height="57.5865" fill="white"/>
</clipPath>
</defs>
</svg>
