<svg width="67" height="51" viewBox="0 0 67 51" fill="none" xmlns="http://www.w3.org/2000/svg">
<g clip-path="url(#clip0_1_1197)">
<path d="M38.9707 47.8671V44.7868C38.9707 43.6114 41.6281 43.6114 41.6281 44.7868V47.8671C43.7948 47.6239 45.839 47.2592 47.8831 46.5296C50.5814 45.5974 53.2387 44.0572 55.3237 42.1522C54.5061 41.4227 51.8078 39.1124 53.852 38.2207C55.3237 37.5722 56.2232 39.4772 57.2452 40.2473C59.8208 37.5722 61.6605 33.9245 62.4373 30.3172C62.6826 29.1013 62.8052 27.8853 63.0097 26.6694H59.9026C58.717 26.6694 58.717 24.0349 59.9026 24.0349H62.8461C62.7235 19.0901 60.6385 14.0237 57.2452 10.457C56.2232 11.2271 55.3237 13.132 53.852 12.4835C51.8078 11.5919 54.4652 9.28159 55.3237 8.55203C52.6255 5.99858 48.9461 4.17468 45.3075 3.40459C44.081 3.16141 42.8545 3.03981 41.6281 2.83716V5.91752C41.6281 7.09292 38.9707 7.09292 38.9707 5.91752V2.83716C36.5586 3.08034 34.351 3.56672 32.0615 4.37734C30.9577 4.78265 28.9136 6.2823 28.0959 4.90424C27.2783 3.52619 28.6274 2.95875 29.6495 2.47238C46.0025 -5.39064 65.0947 6.89026 65.7079 24.6428C66.3212 42.3954 46.5749 56.257 29.6495 48.313C28.6274 47.8266 27.3192 47.2997 28.0959 45.8811C28.8727 44.4625 30.9577 46.0027 32.0615 46.408C34.3101 47.2186 36.5586 47.7455 38.9707 47.9482V47.8671Z" fill="white"/>
<path d="M50.2953 13.74C51.44 13.4968 52.2986 14.429 51.9306 15.5234L45.0623 22.4947C45.0623 22.4947 45.5938 24.1159 45.6347 24.5618C46.0435 28.3312 43.1 30.8846 39.4205 30.3982C38.8891 30.3172 38.0714 29.8713 37.7444 29.9119C37.0085 29.9929 36.3952 31.9384 34.8826 31.0873C33.4517 30.2766 34.8008 28.6959 35.6185 28.0069C33.6561 23.8322 36.3544 19.6981 41.0967 20.1439C41.6691 20.1844 42.8138 20.7113 43.1817 20.5492L50.3362 13.6995L50.2953 13.74ZM39.5841 22.8595C36.9676 23.3053 36.9676 27.3179 39.5841 27.7637C44.122 28.5338 44.122 22.0894 39.5841 22.8595Z" fill="white"/>
<path d="M-0.194782 24.0349H27.033C28.7092 24.1565 28.7092 26.5073 27.033 26.6694H0.0913965C-1.42126 26.5478 -1.66656 24.5213 -0.194782 24.0349Z" fill="white"/>
<path d="M29.7312 16.415C30.508 17.2257 29.9765 18.5632 28.8727 18.6848H8.10431C6.42812 18.5226 6.42812 16.1718 8.10431 16.0097C14.7273 16.4961 22.1679 15.4018 28.6683 16.0097C29.0362 16.0097 29.445 16.1313 29.6903 16.415H29.7312Z" fill="white"/>
<path d="M29.7312 32.3437C30.508 33.1544 29.9765 34.4919 28.8727 34.6135H8.10431C6.42812 34.4514 6.42812 32.1006 8.10431 31.9384C14.7273 32.4248 22.1679 31.3305 28.6683 31.9384C29.0362 31.9384 29.445 32.06 29.6903 32.3437H29.7312Z" fill="white"/>
<path d="M15.8311 8.1062H30.6715C32.3477 8.22779 32.3885 10.5381 30.6715 10.7407C26.1744 11.2676 20.6961 10.3354 16.1173 10.7407C14.6046 10.6191 14.3593 8.59257 15.8311 8.1062Z" fill="white"/>
<path d="M15.8311 39.9636H30.6715C32.3477 40.0852 32.3885 42.3955 30.6715 42.5981C26.1744 43.125 20.6961 42.1928 16.1173 42.5981C14.6046 42.4765 14.3593 40.45 15.8311 39.9636Z" fill="white"/>
</g>
<defs>
<clipPath id="clip0_1_1197">
<rect width="66.5687" height="50.5827" fill="white"/>
</clipPath>
</defs>
</svg>
